<?xml version="1.0" encoding="UTF-8"?>
<svg xmlns="http://www.w3.org/2000/svg" xmlns:xlink="http://www.w3.org/1999/xlink" width="536.6pt" height="425.1pt" viewBox="0 0 536.6 425.1" version="1.1">
<defs>
<clipPath id="clip1">
  <path d="M 0 0 L 230 0 L 230 425.101563 L 0 425.101563 Z M 0 0 "/>
</clipPath>
<clipPath id="clip2">
  <path d="M 243 177 L 536.601563 177 L 536.601563 248 L 243 248 Z M 243 177 "/>
</clipPath>
</defs>
<g id="surface1">
<g clip-path="url(#clip1)" clip-rule="nonzero">
<path style=" stroke:none;fill-rule:evenodd;fill:rgb(10.594177%,9.812927%,9.423828%);fill-opacity:1;" d="M 141.09375 -0.0976563 C 133.859375 12.726563 127.609375 25.550781 122.019531 38.707031 L 55.921875 143.9375 C 59.210938 149.199219 62.167969 147.882813 66.117188 153.472656 C 67.101563 157.089844 69.402344 158.734375 72.035156 159.0625 C 75.324219 160.050781 76.636719 161.035156 79.597656 165.96875 C 80.585938 170.902344 86.175781 174.847656 90.449219 175.832031 C 95.054688 177.808594 96.699219 183.726563 100.644531 185.042969 L 141.09375 127.492188 L 138.460938 211.679688 L 140.105469 212.007813 C 140.105469 213.652344 139.777344 217.925781 140.433594 220.226563 C 140.761719 222.859375 142.40625 223.84375 143.394531 221.871094 C 143.722656 223.515625 143.066406 225.160156 143.066406 227.132813 C 150.957031 229.765625 162.46875 231.410156 166.414063 244.890625 C 160.164063 236.671875 154.246094 233.710938 147.667969 233.382813 C 145.695313 233.054688 143.722656 233.054688 143.066406 231.738281 C 143.394531 235.027344 141.09375 235.355469 140.105469 232.066406 C 139.117188 232.066406 137.476563 232.066406 136.816406 232.722656 C 135.5 236.011719 133.527344 238.3125 130.242188 241.273438 C 122.675781 250.480469 103.933594 233.054688 82.558594 239.300781 C 91.109375 239.628906 101.300781 238.644531 104.589844 245.550781 C 102.945313 249.496094 107.550781 256.402344 111.824219 259.6875 C 123.664063 266.265625 135.832031 276.789063 141.09375 289.285156 C 144.050781 323.8125 142.078125 358.34375 139.777344 392.871094 C 142.40625 382.347656 142.078125 374.457031 151.945313 367.222656 C 152.273438 365.25 158.191406 362.617188 155.890625 360.972656 C 147.667969 355.382813 165.425781 338.613281 161.480469 366.894531 C 161.808594 371.167969 168.058594 372.8125 164.441406 379.71875 L 170.359375 369.851563 C 175.292969 386.292969 165.425781 396.816406 157.863281 409.3125 C 171.015625 397.148438 182.199219 385.964844 189.101563 366.234375 L 188.445313 294.546875 C 195.023438 275.800781 201.597656 289.613281 208.175781 308.359375 C 215.410156 328.089844 207.847656 361.300781 191.40625 381.363281 C 191.40625 402.40625 173.320313 411.945313 155.234375 425.097656 C 226.589844 402.078125 226.589844 358.671875 229.550781 254.757813 L 221.332031 272.515625 C 205.875 265.28125 195.679688 245.550781 184.828125 209.046875 L 183.183594 83.429688 C 185.484375 78.167969 186.800781 73.890625 185.816406 69.289063 C 162.796875 54.820313 139.117188 38.375 141.09375 -0.0976563 Z M 51.976563 153.472656 C 58.222656 163.996094 60.855469 178.136719 59.539063 190.960938 C 62.828125 198.851563 72.363281 203.457031 75.652344 210.691406 C 74.335938 216.609375 71.707031 221.214844 75.652344 228.777344 C 73.019531 234.695313 69.402344 240.289063 64.140625 247.191406 C 67.761719 255.742188 76.308594 262.320313 86.175781 264.949219 C 91.4375 262.976563 96.039063 261.992188 104.261719 262.648438 C 108.207031 264.292969 112.484375 267.910156 116.757813 271.527344 C 109.851563 270.542969 99.988281 266.265625 96.039063 269.226563 C 80.257813 279.75 69.734375 279.75 59.539063 270.871094 C 26.984375 280.078125 11.199219 297.175781 4.292969 332.363281 C 2.320313 302.769531 0.0195313 266.265625 1.332031 244.234375 C 1.660156 237 2.976563 234.039063 6.59375 227.792969 C 23.695313 203.457031 41.125 179.449219 51.976563 153.472656 Z M 70.0625 177.808594 C 73.019531 178.792969 74.996094 181.753906 79.269531 182.082031 C 85.1875 184.054688 89.464844 184.054688 95.710938 191.617188 C 92.753906 198.195313 88.148438 203.457031 83.875 210.035156 C 82.886719 207.402344 83.875 204.773438 82.558594 202.800781 C 80.585938 198.851563 78.613281 196.222656 74.996094 194.25 C 69.402344 187.671875 74.007813 181.09375 70.0625 177.808594 Z M 181.867188 215.296875 C 183.84375 224.175781 187.128906 233.054688 191.734375 241.929688 C 188.773438 242.589844 185.816406 242.917969 182.527344 240.289063 C 180.226563 232.066406 180.882813 224.175781 181.867188 215.296875 Z M 188.445313 249.824219 C 191.078125 248.507813 190.089844 248.179688 193.707031 247.851563 C 199.625 260.675781 208.835938 268.238281 218.371094 277.117188 C 214.753906 281.0625 212.78125 276.789063 210.476563 278.433594 C 200.285156 267.582031 194.035156 261.332031 188.445313 249.824219 Z M 195.351563 275.800781 C 203.242188 277.777344 207.519531 279.421875 213.109375 285.011719 C 211.792969 289.285156 211.792969 290.601563 205.875 292.246094 C 198.96875 287.640625 198.640625 283.367188 196.007813 280.078125 C 197.980469 282.378906 200.613281 284.679688 204.558594 285.011719 C 203.902344 279.421875 199.296875 278.433594 195.351563 275.800781 Z M 194.035156 263.964844 C 194.695313 266.925781 194.363281 268.898438 196.996094 271.527344 C 197.652344 272.183594 199.296875 272.84375 200.285156 272.183594 L 196.996094 266.59375 C 199.957031 270.542969 204.558594 273.828125 208.503906 278.105469 C 203.902344 277.117188 199.296875 274.816406 194.695313 273.171875 C 193.707031 269.882813 193.707031 267.582031 194.035156 263.964844 Z M 194.035156 263.964844 "/>
</g>
<g clip-path="url(#clip2)" clip-rule="nonzero">
<path style=" stroke:none;fill-rule:evenodd;fill:rgb(10.594177%,9.812927%,9.423828%);fill-opacity:1;" d="M 246.59375 196.152344 C 248.359375 197.566406 250.4375 198.320313 252.804688 198.40625 L 256.230469 197.300781 L 258.507813 202.9375 L 259.679688 210.324219 L 259.082031 212.070313 L 258.507813 213.175781 L 259.082031 216.601563 L 258 216.601563 L 258 217.199219 L 254.550781 216.601563 L 252.804688 212.664063 L 252.296875 204.683594 C 252.25 204.175781 251.855469 203.777344 251.125 203.535156 L 250.550781 222.878906 L 250.019531 224.582031 L 250.550781 242.773438 L 250.019531 247.308594 L 245.421875 246.730469 L 243.742188 247.308594 L 243.164063 242.773438 L 243.742188 235.390625 L 243.164063 233.644531 L 243.742188 229.6875 L 243.164063 228.515625 L 243.164063 222.878906 C 243.253906 219.917969 243.808594 216.667969 244.847656 213.175781 L 243.164063 210.324219 L 243.742188 204.109375 L 243.164063 197.300781 Z M 278.714844 247.308594 L 271.128906 246.796875 L 270.554688 245.03125 L 268.808594 236.804688 L 268.808594 228.074219 L 269.914063 226.261719 L 268.742188 221.023438 L 268.742188 205.789063 L 269.25 204.042969 L 268.742188 202.296875 L 269.25 196.992188 L 272.167969 195.246094 L 280.328125 195.246094 L 282.074219 195.820313 C 283.554688 198.273438 284.351563 201.214844 284.484375 204.617188 L 285.125 214.589844 L 284.550781 216.359375 L 280.394531 222.769531 C 278.625 224.050781 277.277344 225.820313 276.324219 228.074219 L 275.796875 236.804688 L 275.796875 238.550781 L 278.714844 236.230469 L 278.136719 233.3125 L 278.648438 232.140625 L 278.648438 230.992188 L 283.953125 230.394531 L 284.617188 240.960938 C 283.753906 243.726563 281.785156 245.847656 278.714844 247.308594 Z M 275.21875 245.625 C 275.042969 245.230469 274.644531 244.851563 274.046875 244.457031 C 274.136719 244.984375 274.535156 245.363281 275.21875 245.625 Z M 270.488281 224.515625 L 270.488281 225.664063 L 271.0625 225.664063 Z M 277.476563 218.679688 L 278.582031 208.707031 L 278.003906 202.296875 L 275.664063 202.871094 L 275.664063 209.878906 L 275.152344 211.625 L 275.730469 212.203125 L 274.578125 216.933594 Z M 304.15625 196.859375 C 304.070313 199.402344 303.847656 201.679688 303.515625 203.644531 L 299.691406 203.644531 C 298.300781 206.121094 297.4375 208.554688 297.105469 210.964844 L 299.691406 220.050781 C 301.285156 219.144531 302.785156 217.992188 304.15625 216.601563 L 309.859375 237.535156 L 309.21875 238.109375 L 309.859375 239.789063 C 309.464844 241.648438 309.152344 242.839844 308.886719 243.351563 C 308.625 243.878906 307.230469 244.808594 304.6875 246.136719 C 302.125 247.484375 297.902344 247.441406 291.976563 246.003906 L 291.976563 241.46875 L 297.105469 240.960938 L 299.050781 241.46875 C 300.15625 241.09375 301.019531 240.519531 301.570313 239.789063 L 299.050781 235.832031 L 296.441406 226.261719 C 295.710938 222.769531 294.851563 219.738281 293.855469 217.199219 L 291.976563 207.601563 C 292.019531 203.84375 292.351563 201.214844 292.949219 199.710938 C 293.570313 198.1875 297.304688 197.234375 304.15625 196.859375 Z M 309.21875 197.433594 C 308.378906 199.554688 307.339844 201.433594 306.035156 203.070313 C 306.214844 200.574219 307.273438 198.695313 309.21875 197.433594 Z M 311.851563 177.363281 L 319.433594 178.003906 L 319.433594 188.105469 L 316.273438 188.105469 L 311.851563 187.464844 C 312.027344 185.960938 312.46875 184.480469 313.15625 183.066406 C 312.515625 181.496094 312.070313 179.59375 311.851563 177.363281 Z M 311.851563 195.6875 C 314.414063 195.730469 316.9375 196.351563 319.433594 197.566406 L 318.792969 202.628906 L 319.433594 204.488281 L 318.792969 206.367188 L 319.433594 212.070313 L 318.792969 213.949219 C 319.144531 215.429688 319.34375 217.109375 319.433594 219.011719 L 318.21875 220.890625 L 319.433594 225.355469 L 318.792969 230.394531 L 319.433594 231.632813 L 318.792969 246.796875 L 313.730469 247.375 L 311.851563 246.796875 L 311.277344 240.5 L 311.851563 234.816406 L 311.277344 232.9375 L 311.277344 224.714844 L 311.851563 217.773438 L 311.277344 213.949219 C 311.808594 213.859375 312.203125 213.460938 312.515625 212.730469 L 311.851563 211.429688 L 311.277344 203.84375 Z M 335.949219 180.015625 C 338.933594 180.457031 340.699219 182.027344 341.273438 184.746094 L 340.679688 196.019531 C 340.632813 199.070313 340.257813 202.054688 339.527344 204.949219 L 341.273438 212.664063 L 340.679688 214.414063 L 341.273438 219.785156 L 340.679688 246.464844 L 338.289063 247.636719 L 332.984375 245.890625 L 327.65625 247.636719 L 326.441406 245.296875 C 325.359375 242.199219 324.785156 238.617188 324.695313 234.617188 L 324.695313 210.257813 L 325.269531 201.390625 L 326.441406 199.578125 C 327.523438 198.054688 328.894531 196.683594 330.574219 195.421875 L 332.386719 197.832031 C 333.25 197.300781 334.046875 196.503906 334.730469 195.421875 C 334.644531 193.523438 334.246094 191.554688 333.558594 189.476563 C 333.824219 186.535156 334.621094 183.375 335.949219 180.015625 Z M 332.386719 204.308594 L 331.8125 221.53125 L 332.386719 221.53125 L 331.8125 223.34375 L 331.8125 236.363281 C 331.902344 238.042969 332.476563 239.457031 333.558594 240.5625 C 334.511719 238.550781 335.085938 236.164063 335.304688 233.445313 C 334.578125 230.636719 334 227.476563 333.558594 223.917969 L 333.558594 213.816406 L 334.132813 212.664063 C 333.847656 210.011719 333.25 207.226563 332.386719 204.308594 Z M 338.867188 207.867188 L 337.121094 209.679688 L 339.527344 210.257813 Z M 356.417969 247.308594 L 348.835938 246.796875 L 348.261719 245.03125 L 346.515625 236.804688 L 346.515625 228.074219 L 347.621094 226.261719 L 346.449219 221.023438 L 346.449219 205.789063 L 346.957031 204.042969 L 346.449219 202.296875 L 346.957031 196.992188 L 349.875 195.246094 L 358.03125 195.246094 L 359.777344 195.820313 C 361.257813 198.273438 362.054688 201.214844 362.1875 204.617188 L 362.828125 214.589844 L 362.253906 216.359375 L 358.097656 222.769531 C 356.328125 224.050781 354.980469 225.820313 354.03125 228.074219 L 353.5 236.804688 L 353.5 238.550781 L 356.417969 236.230469 L 355.84375 233.3125 L 356.351563 232.140625 L 356.351563 230.992188 L 361.65625 230.394531 L 362.320313 240.960938 C 361.457031 243.726563 359.492188 245.847656 356.417969 247.308594 Z M 352.925781 245.625 C 352.75 245.230469 352.351563 244.851563 351.753906 244.457031 C 351.84375 244.984375 352.238281 245.363281 352.925781 245.625 Z M 348.195313 224.515625 L 348.195313 225.664063 L 348.769531 225.664063 Z M 355.179688 218.679688 L 356.285156 208.707031 L 355.710938 202.296875 L 353.367188 202.871094 L 353.367188 209.878906 L 352.859375 211.625 L 353.433594 212.203125 L 352.285156 216.933594 Z M 372.46875 196.152344 C 374.234375 197.566406 376.3125 198.320313 378.703125 198.40625 L 384.382813 202.9375 L 385.554688 210.324219 L 384.980469 212.070313 L 384.382813 213.175781 L 384.980469 216.601563 L 383.875 216.601563 L 383.875 217.199219 L 380.449219 216.601563 L 378.703125 212.664063 L 378.171875 204.683594 C 378.125 204.175781 377.75 203.777344 377 203.535156 L 376.425781 222.878906 L 375.917969 224.582031 L 376.425781 242.773438 L 375.917969 247.308594 L 371.316406 246.730469 L 369.617188 247.308594 L 369.039063 242.773438 L 369.617188 235.390625 L 369.039063 233.644531 L 369.617188 229.6875 L 369.039063 228.515625 L 369.039063 222.878906 C 369.128906 219.917969 369.683594 216.667969 370.722656 213.175781 L 369.039063 210.324219 L 369.617188 204.109375 L 369.039063 197.300781 Z M 384.980469 204.441406 L 385.554688 210.652344 L 383.941406 213.503906 C 384.9375 217 385.464844 220.226563 385.554688 223.210938 L 385.554688 228.847656 L 384.980469 230.019531 L 385.554688 233.953125 L 384.980469 235.722656 L 385.554688 243.105469 L 384.980469 247.636719 L 383.34375 247.042969 L 378.945313 247.636719 L 378.4375 243.105469 L 378.945313 224.890625 L 378.4375 223.210938 L 377.90625 203.84375 C 377.175781 204.109375 376.824219 204.488281 376.824219 205.015625 L 376.292969 212.976563 L 374.613281 216.933594 L 371.316406 217.507813 L 371.316406 216.933594 L 370.277344 216.933594 L 370.789063 213.503906 L 370.277344 212.402344 L 369.683594 210.652344 L 370.789063 203.269531 L 373 197.632813 L 376.292969 198.738281 C 378.589844 198.648438 381.488281 200.550781 384.980469 204.441406 Z M 415.554688 199.644531 L 414.824219 209.613281 L 401.625 209.746094 L 401.558594 205.589844 L 402.332031 199.84375 C 404.324219 200.042969 406.246094 200.59375 408.101563 201.457031 C 410.113281 200.59375 412.613281 199.976563 415.554688 199.644531 Z M 395.015625 179.683594 C 397.78125 179.726563 400.519531 180.542969 403.238281 182.160156 L 402.53125 188.769531 L 403.238281 191.222656 L 402.53125 193.675781 L 403.238281 201.125 L 402.53125 203.578125 C 402.90625 205.527344 403.152344 207.734375 403.238281 210.191406 L 401.871094 212.664063 L 403.238281 218.546875 L 402.53125 225.15625 L 403.238281 226.769531 L 402.53125 246.597656 L 397.027344 247.375 L 395.015625 246.597656 L 394.375 238.375 L 395.015625 230.925781 L 394.375 228.449219 L 394.375 217.707031 L 395.015625 208.640625 L 394.375 203.578125 C 394.929688 203.511719 395.371094 202.960938 395.722656 201.964844 L 395.015625 200.285156 L 394.375 190.382813 Z M 465.027344 247.308594 L 457.445313 246.796875 L 456.871094 245.03125 L 455.125 236.804688 L 455.125 228.074219 L 456.230469 226.261719 L 455.058594 221.023438 L 455.058594 205.789063 L 455.566406 204.042969 L 455.058594 202.296875 L 455.566406 196.992188 L 458.484375 195.246094 L 466.640625 195.246094 L 468.386719 195.820313 C 469.871094 198.273438 470.664063 201.214844 470.796875 204.617188 L 471.4375 214.589844 L 470.863281 216.359375 L 466.707031 222.769531 C 464.941406 224.050781 463.589844 225.820313 462.640625 228.074219 L 462.109375 236.804688 L 462.109375 238.550781 L 465.027344 236.230469 L 464.453125 233.3125 L 464.960938 232.140625 L 464.960938 230.992188 L 470.265625 230.394531 L 470.929688 240.960938 C 470.066406 243.726563 468.101563 245.847656 465.027344 247.308594 Z M 461.535156 245.625 C 461.359375 245.230469 460.960938 244.851563 460.363281 244.457031 C 460.453125 244.984375 460.851563 245.363281 461.535156 245.625 Z M 456.804688 224.515625 L 456.804688 225.664063 L 457.378906 225.664063 Z M 463.789063 218.679688 L 464.894531 208.707031 L 464.320313 202.296875 L 461.976563 202.871094 L 461.976563 209.878906 L 461.46875 211.625 L 462.042969 212.203125 L 460.894531 216.933594 Z M 482.824219 242.132813 L 481.476563 235.964844 L 481.410156 232.472656 C 480.878906 229.445313 480.414063 226.460938 479.972656 223.476563 L 479.265625 217.839844 L 479.730469 216.601563 L 478.691406 212.730469 L 479.019531 210.917969 L 477.585938 203.644531 L 477.585938 199.046875 L 479.332031 199.445313 L 483.796875 198.273438 L 484.902344 202.738281 L 486.582031 220.957031 L 487.3125 222.570313 L 490.207031 241.800781 C 490.914063 241.449219 491.246094 241.027344 491.246094 240.5 L 490.804688 232.539063 L 492.019531 228.339844 L 495.402344 227.367188 L 495.46875 227.941406 L 496.550781 227.808594 L 496.375 231.300781 L 497.082031 232.339844 L 497.921875 234.019531 L 497.65625 241.46875 L 492.550781 246.730469 C 490.164063 247.109375 486.9375 245.582031 482.824219 242.132813 Z M 497.589844 241.867188 C 493.832031 245.539063 490.828125 247.242188 488.527344 246.976563 L 483.355469 242.132813 L 482.757813 234.617188 L 483.421875 232.9375 L 484.0625 231.832031 L 483.730469 228.339844 L 484.835938 228.40625 L 484.835938 227.808594 L 488.085938 228.648438 L 489.5 232.738281 L 489.433594 240.761719 C 489.433594 241.292969 489.789063 241.691406 490.472656 242 L 492.351563 222.636719 L 492.992188 220.957031 L 493.722656 202.671875 L 494.5625 198.140625 L 498.894531 199.046875 L 500.574219 198.605469 L 500.839844 203.136719 L 499.734375 210.519531 L 500.199219 212.335938 L 499.335938 216.226563 L 499.867188 217.441406 L 499.46875 223.078125 C 499.183594 226.0625 498.386719 229.289063 497.148438 232.738281 L 498.5625 235.722656 Z M 507.296875 177.363281 L 514.878906 178.003906 L 514.878906 188.105469 L 511.71875 188.105469 L 507.296875 187.464844 C 507.472656 185.960938 507.914063 184.480469 508.601563 183.066406 C 507.957031 181.496094 507.515625 179.59375 507.296875 177.363281 Z M 507.296875 195.6875 C 509.859375 195.730469 512.378906 196.351563 514.878906 197.566406 L 514.238281 202.628906 L 514.878906 204.488281 L 514.238281 206.367188 L 514.878906 212.070313 L 514.238281 213.949219 C 514.589844 215.429688 514.789063 217.109375 514.878906 219.011719 L 513.664063 220.890625 L 514.878906 225.355469 L 514.238281 230.394531 L 514.878906 231.632813 L 514.238281 246.796875 L 509.175781 247.375 L 507.296875 246.796875 L 506.722656 240.5 L 507.296875 234.816406 L 506.722656 232.9375 L 506.722656 224.714844 L 507.296875 217.773438 L 506.722656 213.949219 C 507.25 213.859375 507.648438 213.460938 507.957031 212.730469 L 507.296875 211.429688 L 506.722656 203.84375 Z M 536.652344 239.457031 L 536.058594 247.042969 L 525.953125 247.109375 L 525.953125 244.011719 L 526.550781 239.523438 C 528.054688 239.703125 529.511719 240.144531 530.949219 240.828125 C 532.496094 240.144531 534.398438 239.679688 536.652344 239.457031 Z M 520.382813 195.6875 C 522.949219 195.730469 525.46875 196.351563 527.964844 197.566406 L 527.324219 202.628906 L 527.964844 204.488281 L 527.324219 206.367188 L 527.964844 212.070313 L 527.324219 213.949219 C 527.65625 215.429688 527.878906 217.109375 527.964844 219.011719 L 526.726563 220.890625 L 527.964844 225.355469 L 527.324219 230.394531 L 527.964844 231.632813 L 527.324219 246.796875 L 522.261719 247.375 L 520.382813 246.796875 L 519.808594 240.5 L 520.382813 234.816406 L 519.808594 232.9375 L 519.808594 224.714844 L 520.382813 217.773438 L 519.808594 213.949219 C 520.316406 213.859375 520.738281 213.460938 521.046875 212.730469 L 520.382813 211.429688 L 519.808594 203.84375 Z M 520.382813 195.6875 "/>
</g>
</g>
</svg>
